<svg width="88" height="54" viewBox="0 0 88 54" fill="none" xmlns="http://www.w3.org/2000/svg">
<path d="M57.0468 11.1267C57.3897 10.5816 59.1404 11.8609 59.8383 13.6962C60.5362 15.5316 58.7915 16.9999 58.0936 16.9999C57.3957 16.9999 56.2363 15.9291 56 14.4304" stroke="white" stroke-width="2"/>
<path d="M48.5 14.1726C48.9913 13.4301 51.5 15.1726 52.5 17.6726C53.5 20.1726 51 22.1726 50 22.1726C49 22.1726 47.3386 20.714 47 18.6726" stroke="white" stroke-width="2"/>
<path d="M24.9577 18.265C24.0721 18.7139 23.8624 18.9675 23.8345 19.4231C23.971 20.1259 24.1701 20.4195 24.8644 20.6648C25.7138 20.6786 26.0158 20.3904 26.3463 19.5207C26.1284 18.7551 25.8491 18.4571 24.9577 18.265Z" stroke="white"/>
<path d="M1 17.7332C6.91694 11.3058 0.507702 8.15867 20.8774 1.05296C32.1182 0.471397 45.217 4.86562 54.1415 4.86559C63.066 4.86556 87 1.05296 87 1.05296C87 1.05296 54.1415 16.3034 43.5943 19.6395C34.7366 22.4412 15.5787 25.579 8.70755 25.3832M6.27358 24.8819C6.53349 25.1872 7.39705 25.3458 8.70755 25.3832M6.27358 17.7332C6.27358 17.7332 18.4434 10.5845 20.8774 10.1079C23.3113 9.63134 62 8.99994 62 8.99994M11.1415 21.5458C12.8642 24.7098 13.5755 30.1242 11.1415 29.6476C8.70755 29.171 8.70755 25.3832 8.70755 25.3832M11.1415 42.5825C10.3299 42.5631 9.45411 41.9999 10.3302 38.226C11.5472 32.9837 13.8521 40.1604 11.9528 42.5152C11.7634 42.5152 11.4573 42.59 11.1415 42.5825ZM11.1415 42.5825C11.1415 45.5788 11.3011 46.3842 11.3809 46.4124M11.3809 46.4124C11.9557 46.7523 13.3032 48.0674 13.5755 50.1405C13.9031 52.6355 11.098 52.9654 10.7358 52.9999C9.0834 52.7704 7.82024 50.4683 7.89623 49.6639C7.97221 48.8594 8.33682 47.2324 11.1415 46.3278C11.1789 46.3144 11.2639 46.3432 11.3809 46.4124ZM10.2052 31.5539C8.98822 36.7963 11.1517 35.8431 11.8278 35.8431C13.7271 33.4883 11.4222 26.3116 10.2052 31.5539Z" stroke="white" stroke-width="2" stroke-linecap="round"/>
</svg>
