<svg width="403" height="325" viewBox="0 0 403 325" fill="none" xmlns="http://www.w3.org/2000/svg">
<path d="M19.6726 70.3401L-68 83.7827L9.46132 58.2795L48.6775 58.3488M19.6726 70.3401L125.19 136.712M19.6726 70.3401L72.4314 103.526M125.19 136.712L238.105 175.791M125.19 136.712L72.4314 103.526M125.19 136.712L206.498 163.987M125.19 136.712C114.526 149.139 110.28 155.415 106.125 165.209C106.336 175.116 106.96 178.976 108.616 184.048C119.548 170.841 123.644 164.869 128.871 155.683C130.31 144.76 129.61 140.475 125.19 136.712ZM238.105 175.791L348.228 277.006M238.105 175.791L206.498 163.987M348.228 277.006L402.382 279.124L344.945 256.15L250.825 165L141.661 128.281L108.434 107.871M348.228 277.006C351.888 280.798 352.829 284.156 352.038 292.883C344.235 308.284 339.918 314.852 332.286 323.474C331.686 316.932 330.752 313.446 327.139 307.823C333.293 292.666 338.65 287.029 348.228 277.006ZM48.6775 58.3488L108.434 107.871M48.6775 58.3488C47.1712 51.5841 46.6876 46.5464 46.8937 33.8593C51.6402 22.0776 56.3302 14.8033 67.9655 0.792425C72.4049 6.36738 72.9489 11.9604 70.9821 25.6574C65.1462 36.4764 60.6251 43.3886 48.6775 58.3488ZM108.434 107.871C112.12 98.7126 114.925 92.6195 122.123 78.8976C129.234 71.3471 133.789 68.6907 142.808 66.54C140.07 77.733 136.957 84.5058 129.023 97.3318C122.354 102.582 118.019 105.032 108.434 107.871ZM206.498 163.987C212.852 170.143 213.909 174.772 211.896 184.86C203.729 202.275 197.952 211.251 185.621 225.936C177.545 222.517 176.718 217.368 178.417 205.405C191.26 181.924 196.885 174.893 206.498 163.987ZM72.4314 103.526C73.7782 112.093 74.1822 116.63 72.8674 123.172C63.6868 139.906 59.0943 145.819 51.6109 152.013C49.4532 145.275 49.3918 140.752 50.0468 132.185C57.1013 118.287 62.044 112.085 72.4314 103.526ZM263.86 174.962C267.108 166.035 268.476 161.38 280.066 146.008C287.269 140.639 291.371 138.879 298.856 138.982C293.719 151.864 290.053 158.651 282.242 170.026C274.374 176.174 270.353 177.172 263.86 174.962ZM171.006 129.541C175.344 117.423 178.764 109.406 187.8 91.4625C197.545 81.9881 204.085 78.9152 217.456 77.1028C214.832 92.1364 211.038 101.049 200.764 117.668C191.375 124.036 185.141 126.854 171.006 129.541ZM267.354 270.705C266.685 264.537 266.718 260.018 267.988 248.808C272.963 238.938 277.501 233.053 288.408 222.026C291.625 227.489 291.594 232.506 288.769 244.402C282.97 253.29 278.604 258.875 267.354 270.705ZM317.698 229.518C322.332 219.361 325.96 212.497 335.492 196.775C345.609 187.179 352.344 183.186 366.039 178.352C363.108 190.236 359.083 197.864 348.307 212.921C338.606 220.111 332.189 223.835 317.698 229.518Z" stroke="#B18DD2" stroke-opacity="0.75"/>
</svg>
